<svg id="Warstwa_1" data-name="Warstwa 1" xmlns="http://www.w3.org/2000/svg" viewBox="0 0 1776.99 474"><defs><style>.cls-1{fill:#f15bb5;}.cls-2{fill:#29ab9c;}.cls-3{fill:#00bbf9;}.cls-4{fill:#9b5de5;}</style></defs><title>piccy</title><path class="cls-1" d="M1.37,139H139.63a1.37,1.37,0,0,1,1.37,1.37v93.07A70.57,70.57,0,0,1,70.43,304H1.37A1.37,1.37,0,0,1,0,302.63V140.37A1.37,1.37,0,0,1,1.37,139Z"/><path class="cls-1" d="M1.37,0H70.43A70.57,70.57,0,0,1,141,70.57v83.07a1.37,1.37,0,0,1-1.37,1.37H1.37A1.37,1.37,0,0,1,0,153.63V1.37A1.37,1.37,0,0,1,1.37,0Z"/><path class="cls-2" d="M268.37,212.5H373.93a70.57,70.57,0,0,1,70.57,70.57v68.57a1.37,1.37,0,0,1-1.37,1.37h-37A139.13,139.13,0,0,1,267,213.87v0a1.37,1.37,0,0,1,1.37-1.37Z" transform="translate(609.5 353.5) rotate(180)"/><path class="cls-3" d="M406.13,375.5h37a1.37,1.37,0,0,1,1.37,1.37v68.57A70.57,70.57,0,0,1,373.93,516H268.37a1.37,1.37,0,0,1-1.37-1.37v0A139.13,139.13,0,0,1,406.13,375.5Z" transform="translate(609.5 679.5) rotate(180)"/><path class="cls-4" d="M105.62,541h66.29A71.09,71.09,0,0,1,243,612.09v70.29a3.62,3.62,0,0,1-3.62,3.62h-66A71.41,71.41,0,0,1,102,614.59v-70a3.62,3.62,0,0,1,3.62-3.62Z" transform="translate(243 1015) rotate(-180)"/><path class="cls-4" d="M494.62,213h66.29A71.09,71.09,0,0,1,632,284.09V682.38a3.62,3.62,0,0,1-3.62,3.62h-66A71.41,71.41,0,0,1,491,614.59v-398A3.62,3.62,0,0,1,494.62,213Z" transform="translate(1021 687) rotate(-180)"/><path class="cls-2" d="M893.37,212.5H998.93a70.57,70.57,0,0,1,70.57,70.57v68.57a1.37,1.37,0,0,1-1.37,1.37h-37A139.13,139.13,0,0,1,892,213.87v0a1.37,1.37,0,0,1,1.37-1.37Z" transform="translate(1859.5 353.5) rotate(180)"/><path class="cls-2" d="M729.13.5h37a1.37,1.37,0,0,1,1.37,1.37V70.43A70.57,70.57,0,0,1,696.93,141H591.37a1.37,1.37,0,0,1-1.37-1.37v0A139.13,139.13,0,0,1,729.13.5Z"/><path class="cls-2" d="M1031.13,545.5h37a1.37,1.37,0,0,1,1.37,1.37v68.57A70.57,70.57,0,0,1,998.93,686H893.37a1.37,1.37,0,0,1-1.37-1.37v0A139.13,139.13,0,0,1,1031.13,545.5Z" transform="translate(1859.5 1019.5) rotate(180)"/><path class="cls-2" d="M591.37,333.5H696.93a70.57,70.57,0,0,1,70.57,70.57v68.57a1.37,1.37,0,0,1-1.37,1.37h-37A139.13,139.13,0,0,1,590,334.87v0A1.37,1.37,0,0,1,591.37,333.5Z"/><path class="cls-2" d="M684.62,395H793.73a5.27,5.27,0,0,1,5.27,5.27V503.38a3.62,3.62,0,0,1-3.62,3.62H685.83a4.83,4.83,0,0,1-4.83-4.83V398.62a3.62,3.62,0,0,1,3.62-3.62Z" transform="translate(1378 690) rotate(-180)"/><path class="cls-3" d="M1654.62,496h66.29A71.09,71.09,0,0,1,1792,567.09V682.38a3.62,3.62,0,0,1-3.62,3.62H1654.72a3.72,3.72,0,0,1-3.72-3.72V499.62a3.62,3.62,0,0,1,3.62-3.62Z" transform="translate(3341 970) rotate(-180)"/><path class="cls-3" d="M1566.86,212.29h68.57A70.57,70.57,0,0,1,1706,282.85V456.63a1.37,1.37,0,0,1-1.37,1.37h0a139.13,139.13,0,0,1-139.13-139.13V213.66a1.37,1.37,0,0,1,1.37-1.37Z" transform="translate(3169.49 458.28) rotate(180)"/><path class="cls-3" d="M1775.62.29h0A1.37,1.37,0,0,1,1777,1.66V175.43A70.57,70.57,0,0,1,1706.43,246h-68.57a1.37,1.37,0,0,1-1.37-1.37V139.42A139.13,139.13,0,0,1,1775.62.29Z"/><path class="cls-1" d="M1337.37,212.5h105.57a70.57,70.57,0,0,1,70.57,70.57v68.57a1.37,1.37,0,0,1-1.37,1.37h-37A139.13,139.13,0,0,1,1336,213.87v0a1.37,1.37,0,0,1,1.37-1.37Z" transform="translate(2747.5 353.5) rotate(180)"/><path class="cls-1" d="M1173.13.5h37a1.37,1.37,0,0,1,1.37,1.37V70.43A70.57,70.57,0,0,1,1140.93,141H1035.37a1.37,1.37,0,0,1-1.37-1.37v0A139.13,139.13,0,0,1,1173.13.5Z"/><path class="cls-1" d="M1475.13,545.5h37a1.37,1.37,0,0,1,1.37,1.37v68.57A70.57,70.57,0,0,1,1442.93,686H1337.37a1.37,1.37,0,0,1-1.37-1.37v0A139.13,139.13,0,0,1,1475.13,545.5Z" transform="translate(2747.5 1019.5) rotate(180)"/><path class="cls-1" d="M1035.37,333.5h105.57a70.57,70.57,0,0,1,70.57,70.57v68.57a1.37,1.37,0,0,1-1.37,1.37h-37A139.13,139.13,0,0,1,1034,334.87v0A1.37,1.37,0,0,1,1035.37,333.5Z"/><path class="cls-1" d="M1128.62,395h109.11a5.27,5.27,0,0,1,5.27,5.27V503.38a3.62,3.62,0,0,1-3.62,3.62H1129.83a4.83,4.83,0,0,1-4.83-4.83V398.62A3.62,3.62,0,0,1,1128.62,395Z" transform="translate(2266 690) rotate(-180)"/></svg>